<svg width="710" height="710" viewBox="0 0 710 710" fill="none" xmlns="http://www.w3.org/2000/svg">
<path fill-rule="evenodd" clip-rule="evenodd" d="M14 0C6.26801 0 0 6.268 0 14V696C0 703.732 6.268 710 14 710H696C703.732 710 710 703.732 710 696V14C710 6.26801 703.732 0 696 0H14ZM76.7881 63.1883C67.9515 63.1883 60.7881 70.3518 60.7881 79.1883V628.815C60.7881 637.652 67.9515 644.815 76.7881 644.815H633.206C642.043 644.815 649.206 637.652 649.206 628.815V79.1883C649.206 70.3518 642.043 63.1883 633.206 63.1883H76.7881Z" fill="black"/>
<path d="M430.811 674.775H435.859V676.25H430.811V674.775ZM449.697 675.566H444.57L443.672 677.656C443.451 678.171 443.34 678.555 443.34 678.809C443.34 679.01 443.434 679.189 443.623 679.346C443.818 679.495 444.235 679.593 444.873 679.639V680H440.703V679.639C441.257 679.541 441.615 679.414 441.777 679.258C442.109 678.945 442.477 678.311 442.881 677.354L447.539 666.455H447.881L452.49 677.471C452.861 678.356 453.197 678.932 453.496 679.199C453.802 679.46 454.225 679.606 454.766 679.639V680H449.541V679.639C450.068 679.613 450.423 679.525 450.605 679.375C450.794 679.225 450.889 679.043 450.889 678.828C450.889 678.542 450.758 678.089 450.498 677.471L449.697 675.566ZM449.424 674.844L447.178 669.492L444.873 674.844H449.424ZM464.102 673.799V677.656C464.102 678.49 464.193 679.007 464.375 679.209C464.622 679.495 464.997 679.639 465.498 679.639H466.006V680H460.332V679.639H460.83C461.39 679.639 461.79 679.456 462.031 679.092C462.161 678.89 462.227 678.411 462.227 677.656V669.102C462.227 668.268 462.139 667.751 461.963 667.549C461.709 667.262 461.331 667.119 460.83 667.119H460.332V666.758H465.186C466.37 666.758 467.305 666.882 467.988 667.129C468.672 667.37 469.248 667.78 469.717 668.359C470.186 668.939 470.42 669.626 470.42 670.42C470.42 671.501 470.062 672.38 469.346 673.057C468.636 673.734 467.63 674.072 466.328 674.072C466.009 674.072 465.664 674.049 465.293 674.004C464.922 673.958 464.525 673.89 464.102 673.799ZM464.102 673.242C464.447 673.307 464.753 673.356 465.02 673.389C465.286 673.421 465.514 673.438 465.703 673.438C466.38 673.438 466.963 673.177 467.451 672.656C467.946 672.129 468.193 671.449 468.193 670.615C468.193 670.042 468.076 669.512 467.842 669.023C467.607 668.529 467.275 668.161 466.846 667.92C466.416 667.673 465.928 667.549 465.381 667.549C465.049 667.549 464.622 667.611 464.102 667.734V673.242ZM474.375 670.791V672.803C475.124 671.462 475.892 670.791 476.68 670.791C477.038 670.791 477.334 670.902 477.568 671.123C477.803 671.338 477.92 671.589 477.92 671.875C477.92 672.129 477.835 672.344 477.666 672.52C477.497 672.695 477.295 672.783 477.061 672.783C476.833 672.783 476.576 672.673 476.289 672.451C476.009 672.223 475.801 672.109 475.664 672.109C475.547 672.109 475.42 672.174 475.283 672.305C474.99 672.572 474.688 673.011 474.375 673.623V677.91C474.375 678.405 474.437 678.779 474.561 679.033C474.645 679.209 474.795 679.355 475.01 679.473C475.225 679.59 475.534 679.648 475.938 679.648V680H471.357V679.648C471.813 679.648 472.152 679.577 472.373 679.434C472.536 679.329 472.65 679.163 472.715 678.936C472.747 678.825 472.764 678.509 472.764 677.988V674.521C472.764 673.48 472.741 672.861 472.695 672.666C472.656 672.464 472.578 672.318 472.461 672.227C472.35 672.135 472.21 672.09 472.041 672.09C471.839 672.09 471.611 672.139 471.357 672.236L471.26 671.885L473.965 670.791H474.375ZM482.793 670.791C484.147 670.791 485.234 671.305 486.055 672.334C486.751 673.213 487.1 674.222 487.1 675.361C487.1 676.162 486.908 676.973 486.523 677.793C486.139 678.613 485.609 679.232 484.932 679.648C484.261 680.065 483.512 680.273 482.686 680.273C481.338 680.273 480.267 679.736 479.473 678.662C478.802 677.757 478.467 676.742 478.467 675.615C478.467 674.795 478.669 673.981 479.072 673.174C479.482 672.36 480.02 671.761 480.684 671.377C481.348 670.986 482.051 670.791 482.793 670.791ZM482.49 671.426C482.145 671.426 481.797 671.53 481.445 671.738C481.1 671.94 480.82 672.298 480.605 672.812C480.391 673.327 480.283 673.988 480.283 674.795C480.283 676.097 480.54 677.22 481.055 678.164C481.576 679.108 482.259 679.58 483.105 679.58C483.737 679.58 484.258 679.32 484.668 678.799C485.078 678.278 485.283 677.383 485.283 676.113C485.283 674.525 484.941 673.275 484.258 672.363C483.796 671.738 483.206 671.426 482.49 671.426ZM494.736 678.994C494.3 679.45 493.874 679.779 493.457 679.98C493.04 680.176 492.591 680.273 492.109 680.273C491.133 680.273 490.28 679.867 489.551 679.053C488.822 678.232 488.457 677.181 488.457 675.898C488.457 674.616 488.861 673.444 489.668 672.383C490.475 671.315 491.514 670.781 492.783 670.781C493.571 670.781 494.222 671.032 494.736 671.533V669.883C494.736 668.861 494.71 668.232 494.658 667.998C494.613 667.764 494.538 667.604 494.434 667.52C494.329 667.435 494.199 667.393 494.043 667.393C493.874 667.393 493.649 667.445 493.369 667.549L493.242 667.207L495.908 666.113H496.348V676.455C496.348 677.503 496.37 678.145 496.416 678.379C496.468 678.607 496.546 678.766 496.65 678.857C496.761 678.949 496.888 678.994 497.031 678.994C497.207 678.994 497.441 678.939 497.734 678.828L497.842 679.17L495.186 680.273H494.736V678.994ZM494.736 678.311V673.701C494.697 673.258 494.58 672.855 494.385 672.49C494.189 672.126 493.929 671.852 493.604 671.67C493.285 671.481 492.972 671.387 492.666 671.387C492.093 671.387 491.582 671.644 491.133 672.158C490.54 672.835 490.244 673.825 490.244 675.127C490.244 676.442 490.531 677.451 491.104 678.154C491.676 678.851 492.314 679.199 493.018 679.199C493.61 679.199 494.183 678.903 494.736 678.311ZM506.26 671.055V676.475C506.26 677.51 506.283 678.145 506.328 678.379C506.38 678.607 506.458 678.766 506.562 678.857C506.673 678.949 506.8 678.994 506.943 678.994C507.145 678.994 507.373 678.939 507.627 678.828L507.764 679.17L505.088 680.273H504.648V678.379C503.88 679.212 503.294 679.736 502.891 679.951C502.487 680.166 502.061 680.273 501.611 680.273C501.11 680.273 500.674 680.13 500.303 679.844C499.938 679.551 499.684 679.176 499.541 678.721C499.398 678.265 499.326 677.62 499.326 676.787V672.793C499.326 672.37 499.281 672.077 499.189 671.914C499.098 671.751 498.962 671.628 498.779 671.543C498.604 671.452 498.281 671.41 497.812 671.416V671.055H500.947V677.041C500.947 677.874 501.09 678.421 501.377 678.682C501.67 678.942 502.021 679.072 502.432 679.072C502.712 679.072 503.027 678.984 503.379 678.809C503.737 678.633 504.16 678.298 504.648 677.803V672.734C504.648 672.227 504.554 671.885 504.365 671.709C504.183 671.527 503.799 671.429 503.213 671.416V671.055H506.26ZM516.016 676.602C515.775 677.78 515.303 678.688 514.6 679.326C513.896 679.958 513.118 680.273 512.266 680.273C511.25 680.273 510.365 679.847 509.609 678.994C508.854 678.141 508.477 676.989 508.477 675.537C508.477 674.131 508.893 672.988 509.727 672.109C510.566 671.23 511.572 670.791 512.744 670.791C513.623 670.791 514.346 671.025 514.912 671.494C515.479 671.956 515.762 672.438 515.762 672.939C515.762 673.187 515.68 673.389 515.518 673.545C515.361 673.695 515.14 673.77 514.854 673.77C514.469 673.77 514.18 673.646 513.984 673.398C513.874 673.262 513.799 673.001 513.76 672.617C513.727 672.233 513.597 671.94 513.369 671.738C513.141 671.543 512.826 671.445 512.422 671.445C511.771 671.445 511.247 671.686 510.85 672.168C510.322 672.806 510.059 673.649 510.059 674.697C510.059 675.765 510.319 676.709 510.84 677.529C511.367 678.343 512.077 678.75 512.969 678.75C513.607 678.75 514.18 678.532 514.688 678.096C515.046 677.796 515.394 677.253 515.732 676.465L516.016 676.602ZM519.902 668.115V671.055H521.992V671.738H519.902V677.539C519.902 678.118 519.984 678.509 520.146 678.711C520.316 678.913 520.531 679.014 520.791 679.014C521.006 679.014 521.214 678.949 521.416 678.818C521.618 678.682 521.774 678.483 521.885 678.223H522.266C522.038 678.861 521.715 679.342 521.299 679.668C520.882 679.987 520.452 680.146 520.01 680.146C519.71 680.146 519.417 680.065 519.131 679.902C518.844 679.733 518.633 679.495 518.496 679.189C518.359 678.877 518.291 678.398 518.291 677.754V671.738H516.875V671.416C517.233 671.273 517.598 671.032 517.969 670.693C518.346 670.348 518.682 669.941 518.975 669.473C519.124 669.225 519.333 668.773 519.6 668.115H519.902ZM532.246 670.791C533.6 670.791 534.688 671.305 535.508 672.334C536.204 673.213 536.553 674.222 536.553 675.361C536.553 676.162 536.361 676.973 535.977 677.793C535.592 678.613 535.062 679.232 534.385 679.648C533.714 680.065 532.965 680.273 532.139 680.273C530.791 680.273 529.72 679.736 528.926 678.662C528.255 677.757 527.92 676.742 527.92 675.615C527.92 674.795 528.122 673.981 528.525 673.174C528.936 672.36 529.473 671.761 530.137 671.377C530.801 670.986 531.504 670.791 532.246 670.791ZM531.943 671.426C531.598 671.426 531.25 671.53 530.898 671.738C530.553 671.94 530.273 672.298 530.059 672.812C529.844 673.327 529.736 673.988 529.736 674.795C529.736 676.097 529.993 677.22 530.508 678.164C531.029 679.108 531.712 679.58 532.559 679.58C533.19 679.58 533.711 679.32 534.121 678.799C534.531 678.278 534.736 677.383 534.736 676.113C534.736 674.525 534.395 673.275 533.711 672.363C533.249 671.738 532.66 671.426 531.943 671.426ZM541.367 671.758V677.637C541.367 678.47 541.458 678.997 541.641 679.219C541.882 679.505 542.204 679.648 542.607 679.648H543.418V680H538.076V679.648H538.477C538.737 679.648 538.975 679.583 539.189 679.453C539.404 679.323 539.551 679.147 539.629 678.926C539.714 678.704 539.756 678.275 539.756 677.637V671.758H538.018V671.055H539.756V670.469C539.756 669.577 539.899 668.822 540.186 668.203C540.472 667.585 540.908 667.087 541.494 666.709C542.087 666.325 542.751 666.133 543.486 666.133C544.17 666.133 544.798 666.354 545.371 666.797C545.749 667.09 545.938 667.419 545.938 667.783C545.938 667.979 545.853 668.164 545.684 668.34C545.514 668.509 545.332 668.594 545.137 668.594C544.987 668.594 544.827 668.542 544.658 668.438C544.495 668.327 544.294 668.096 544.053 667.744C543.812 667.386 543.59 667.145 543.389 667.021C543.187 666.898 542.962 666.836 542.715 666.836C542.415 666.836 542.161 666.917 541.953 667.08C541.745 667.236 541.595 667.484 541.504 667.822C541.413 668.154 541.367 669.017 541.367 670.41V671.055H543.672V671.758H541.367ZM560.107 666.758L560.254 669.863H559.883C559.811 669.316 559.714 668.926 559.59 668.691C559.388 668.314 559.118 668.037 558.779 667.861C558.447 667.679 558.008 667.588 557.461 667.588H555.596V677.705C555.596 678.519 555.684 679.027 555.859 679.229C556.107 679.502 556.488 679.639 557.002 679.639H557.461V680H551.846V679.639H552.314C552.874 679.639 553.271 679.469 553.506 679.131C553.649 678.923 553.721 678.447 553.721 677.705V667.588H552.129C551.51 667.588 551.071 667.633 550.811 667.725C550.472 667.848 550.182 668.086 549.941 668.438C549.701 668.789 549.557 669.264 549.512 669.863H549.141L549.297 666.758H560.107ZM564.014 666.113V672.656C564.736 671.862 565.309 671.354 565.732 671.133C566.156 670.905 566.579 670.791 567.002 670.791C567.51 670.791 567.946 670.931 568.311 671.211C568.675 671.491 568.945 671.93 569.121 672.529C569.245 672.946 569.307 673.708 569.307 674.814V677.979C569.307 678.545 569.352 678.932 569.443 679.141C569.508 679.297 569.619 679.421 569.775 679.512C569.932 679.603 570.218 679.648 570.635 679.648V680H566.24V679.648H566.445C566.862 679.648 567.152 679.587 567.314 679.463C567.477 679.333 567.591 679.144 567.656 678.896C567.676 678.792 567.686 678.486 567.686 677.979V674.814C567.686 673.838 567.633 673.197 567.529 672.891C567.432 672.585 567.272 672.357 567.051 672.207C566.829 672.051 566.562 671.973 566.25 671.973C565.931 671.973 565.599 672.057 565.254 672.227C564.909 672.396 564.495 672.738 564.014 673.252V677.979C564.014 678.59 564.046 678.971 564.111 679.121C564.183 679.271 564.31 679.398 564.492 679.502C564.681 679.6 565.003 679.648 565.459 679.648V680H561.025V679.648C561.423 679.648 561.735 679.587 561.963 679.463C562.093 679.398 562.197 679.274 562.275 679.092C562.354 678.91 562.393 678.538 562.393 677.979V669.883C562.393 668.861 562.367 668.232 562.314 667.998C562.269 667.764 562.194 667.604 562.09 667.52C561.992 667.435 561.859 667.393 561.689 667.393C561.553 667.393 561.331 667.445 561.025 667.549L560.889 667.207L563.564 666.113H564.014ZM572.891 674.424C572.884 675.752 573.206 676.794 573.857 677.549C574.508 678.304 575.273 678.682 576.152 678.682C576.738 678.682 577.246 678.522 577.676 678.203C578.112 677.878 578.477 677.324 578.77 676.543L579.072 676.738C578.936 677.63 578.538 678.444 577.881 679.18C577.223 679.909 576.4 680.273 575.41 680.273C574.336 680.273 573.415 679.857 572.646 679.023C571.885 678.184 571.504 677.057 571.504 675.645C571.504 674.115 571.895 672.923 572.676 672.07C573.464 671.211 574.45 670.781 575.635 670.781C576.637 670.781 577.461 671.113 578.105 671.777C578.75 672.435 579.072 673.317 579.072 674.424H572.891ZM572.891 673.857H577.031C576.999 673.285 576.93 672.881 576.826 672.646C576.663 672.282 576.419 671.995 576.094 671.787C575.775 671.579 575.439 671.475 575.088 671.475C574.548 671.475 574.062 671.686 573.633 672.109C573.21 672.526 572.962 673.109 572.891 673.857ZM593.887 673.242C594.805 673.438 595.492 673.75 595.947 674.18C596.579 674.779 596.895 675.511 596.895 676.377C596.895 677.035 596.686 677.666 596.27 678.271C595.853 678.87 595.28 679.31 594.551 679.59C593.828 679.863 592.721 680 591.23 680H584.98V679.639H585.479C586.032 679.639 586.429 679.463 586.67 679.111C586.82 678.883 586.895 678.398 586.895 677.656V669.102C586.895 668.281 586.8 667.764 586.611 667.549C586.357 667.262 585.98 667.119 585.479 667.119H584.98V666.758H590.703C591.771 666.758 592.627 666.836 593.271 666.992C594.248 667.227 594.993 667.643 595.508 668.242C596.022 668.835 596.279 669.518 596.279 670.293C596.279 670.957 596.077 671.553 595.674 672.08C595.27 672.601 594.674 672.988 593.887 673.242ZM588.77 672.715C589.01 672.76 589.284 672.796 589.59 672.822C589.902 672.842 590.244 672.852 590.615 672.852C591.566 672.852 592.279 672.751 592.754 672.549C593.236 672.34 593.604 672.025 593.857 671.602C594.111 671.178 594.238 670.716 594.238 670.215C594.238 669.44 593.923 668.779 593.291 668.232C592.66 667.686 591.738 667.412 590.527 667.412C589.876 667.412 589.29 667.484 588.77 667.627V672.715ZM588.77 679.043C589.525 679.219 590.27 679.307 591.006 679.307C592.184 679.307 593.083 679.043 593.701 678.516C594.32 677.982 594.629 677.324 594.629 676.543C594.629 676.029 594.489 675.534 594.209 675.059C593.929 674.583 593.473 674.209 592.842 673.936C592.21 673.662 591.429 673.525 590.498 673.525C590.094 673.525 589.749 673.532 589.463 673.545C589.176 673.558 588.945 673.581 588.77 673.613V679.043ZM602.988 670.791C604.342 670.791 605.43 671.305 606.25 672.334C606.947 673.213 607.295 674.222 607.295 675.361C607.295 676.162 607.103 676.973 606.719 677.793C606.335 678.613 605.804 679.232 605.127 679.648C604.456 680.065 603.708 680.273 602.881 680.273C601.533 680.273 600.462 679.736 599.668 678.662C598.997 677.757 598.662 676.742 598.662 675.615C598.662 674.795 598.864 673.981 599.268 673.174C599.678 672.36 600.215 671.761 600.879 671.377C601.543 670.986 602.246 670.791 602.988 670.791ZM602.686 671.426C602.34 671.426 601.992 671.53 601.641 671.738C601.296 671.94 601.016 672.298 600.801 672.812C600.586 673.327 600.479 673.988 600.479 674.795C600.479 676.097 600.736 677.22 601.25 678.164C601.771 679.108 602.454 679.58 603.301 679.58C603.932 679.58 604.453 679.32 604.863 678.799C605.273 678.278 605.479 677.383 605.479 676.113C605.479 674.525 605.137 673.275 604.453 672.363C603.991 671.738 603.402 671.426 602.686 671.426ZM614.932 678.994C614.495 679.45 614.069 679.779 613.652 679.98C613.236 680.176 612.786 680.273 612.305 680.273C611.328 680.273 610.475 679.867 609.746 679.053C609.017 678.232 608.652 677.181 608.652 675.898C608.652 674.616 609.056 673.444 609.863 672.383C610.671 671.315 611.709 670.781 612.979 670.781C613.766 670.781 614.417 671.032 614.932 671.533V669.883C614.932 668.861 614.906 668.232 614.854 667.998C614.808 667.764 614.733 667.604 614.629 667.52C614.525 667.435 614.395 667.393 614.238 667.393C614.069 667.393 613.844 667.445 613.564 667.549L613.438 667.207L616.104 666.113H616.543V676.455C616.543 677.503 616.566 678.145 616.611 678.379C616.663 678.607 616.742 678.766 616.846 678.857C616.956 678.949 617.083 678.994 617.227 678.994C617.402 678.994 617.637 678.939 617.93 678.828L618.037 679.17L615.381 680.273H614.932V678.994ZM614.932 678.311V673.701C614.893 673.258 614.775 672.855 614.58 672.49C614.385 672.126 614.124 671.852 613.799 671.67C613.48 671.481 613.167 671.387 612.861 671.387C612.288 671.387 611.777 671.644 611.328 672.158C610.736 672.835 610.439 673.825 610.439 675.127C610.439 676.442 610.726 677.451 611.299 678.154C611.872 678.851 612.51 679.199 613.213 679.199C613.805 679.199 614.378 678.903 614.932 678.311ZM623.682 678.711C622.764 679.421 622.188 679.831 621.953 679.941C621.602 680.104 621.227 680.186 620.83 680.186C620.212 680.186 619.701 679.974 619.297 679.551C618.9 679.128 618.701 678.571 618.701 677.881C618.701 677.445 618.799 677.067 618.994 676.748C619.261 676.305 619.723 675.889 620.381 675.498C621.045 675.107 622.145 674.632 623.682 674.072V673.721C623.682 672.829 623.538 672.217 623.252 671.885C622.972 671.553 622.562 671.387 622.021 671.387C621.611 671.387 621.286 671.497 621.045 671.719C620.798 671.94 620.674 672.194 620.674 672.48L620.693 673.047C620.693 673.346 620.615 673.577 620.459 673.74C620.309 673.903 620.111 673.984 619.863 673.984C619.622 673.984 619.424 673.9 619.268 673.73C619.118 673.561 619.043 673.33 619.043 673.037C619.043 672.477 619.329 671.963 619.902 671.494C620.475 671.025 621.279 670.791 622.314 670.791C623.109 670.791 623.76 670.924 624.268 671.191C624.652 671.393 624.935 671.709 625.117 672.139C625.234 672.419 625.293 672.992 625.293 673.857V676.895C625.293 677.747 625.309 678.271 625.342 678.467C625.374 678.656 625.426 678.783 625.498 678.848C625.576 678.913 625.664 678.945 625.762 678.945C625.866 678.945 625.957 678.923 626.035 678.877C626.172 678.792 626.436 678.555 626.826 678.164V678.711C626.097 679.688 625.4 680.176 624.736 680.176C624.417 680.176 624.163 680.065 623.975 679.844C623.786 679.622 623.688 679.245 623.682 678.711ZM623.682 678.076V674.668C622.699 675.059 622.064 675.335 621.777 675.498C621.263 675.785 620.895 676.084 620.674 676.396C620.452 676.709 620.342 677.051 620.342 677.422C620.342 677.891 620.482 678.281 620.762 678.594C621.042 678.9 621.364 679.053 621.729 679.053C622.223 679.053 622.874 678.727 623.682 678.076ZM635.098 676.602C634.857 677.78 634.385 678.688 633.682 679.326C632.979 679.958 632.201 680.273 631.348 680.273C630.332 680.273 629.447 679.847 628.691 678.994C627.936 678.141 627.559 676.989 627.559 675.537C627.559 674.131 627.975 672.988 628.809 672.109C629.648 671.23 630.654 670.791 631.826 670.791C632.705 670.791 633.428 671.025 633.994 671.494C634.561 671.956 634.844 672.438 634.844 672.939C634.844 673.187 634.762 673.389 634.6 673.545C634.443 673.695 634.222 673.77 633.936 673.77C633.551 673.77 633.262 673.646 633.066 673.398C632.956 673.262 632.881 673.001 632.842 672.617C632.809 672.233 632.679 671.94 632.451 671.738C632.223 671.543 631.908 671.445 631.504 671.445C630.853 671.445 630.329 671.686 629.932 672.168C629.404 672.806 629.141 673.649 629.141 674.697C629.141 675.765 629.401 676.709 629.922 677.529C630.449 678.343 631.159 678.75 632.051 678.75C632.689 678.75 633.262 678.532 633.77 678.096C634.128 677.796 634.476 677.253 634.814 676.465L635.098 676.602ZM638.662 666.113C638.936 666.113 639.167 666.211 639.355 666.406C639.551 666.595 639.648 666.826 639.648 667.1C639.648 667.373 639.551 667.607 639.355 667.803C639.167 667.998 638.936 668.096 638.662 668.096C638.389 668.096 638.154 667.998 637.959 667.803C637.764 667.607 637.666 667.373 637.666 667.1C637.666 666.826 637.76 666.595 637.949 666.406C638.145 666.211 638.382 666.113 638.662 666.113ZM639.473 670.791V677.979C639.473 678.538 639.512 678.913 639.59 679.102C639.674 679.284 639.795 679.421 639.951 679.512C640.114 679.603 640.407 679.648 640.83 679.648V680H636.484V679.648C636.921 679.648 637.214 679.606 637.363 679.521C637.513 679.437 637.63 679.297 637.715 679.102C637.806 678.906 637.852 678.532 637.852 677.979V674.531C637.852 673.561 637.822 672.933 637.764 672.646C637.718 672.438 637.646 672.295 637.549 672.217C637.451 672.132 637.318 672.09 637.148 672.09C636.966 672.09 636.745 672.139 636.484 672.236L636.348 671.885L639.043 670.791H639.473ZM646.328 670.791C647.682 670.791 648.77 671.305 649.59 672.334C650.286 673.213 650.635 674.222 650.635 675.361C650.635 676.162 650.443 676.973 650.059 677.793C649.674 678.613 649.144 679.232 648.467 679.648C647.796 680.065 647.048 680.273 646.221 680.273C644.873 680.273 643.802 679.736 643.008 678.662C642.337 677.757 642.002 676.742 642.002 675.615C642.002 674.795 642.204 673.981 642.607 673.174C643.018 672.36 643.555 671.761 644.219 671.377C644.883 670.986 645.586 670.791 646.328 670.791ZM646.025 671.426C645.68 671.426 645.332 671.53 644.98 671.738C644.635 671.94 644.355 672.298 644.141 672.812C643.926 673.327 643.818 673.988 643.818 674.795C643.818 676.097 644.076 677.22 644.59 678.164C645.111 679.108 645.794 679.58 646.641 679.58C647.272 679.58 647.793 679.32 648.203 678.799C648.613 678.278 648.818 677.383 648.818 676.113C648.818 674.525 648.477 673.275 647.793 672.363C647.331 671.738 646.742 671.426 646.025 671.426ZM659.795 671.055V676.475C659.795 677.51 659.818 678.145 659.863 678.379C659.915 678.607 659.993 678.766 660.098 678.857C660.208 678.949 660.335 678.994 660.479 678.994C660.68 678.994 660.908 678.939 661.162 678.828L661.299 679.17L658.623 680.273H658.184V678.379C657.415 679.212 656.829 679.736 656.426 679.951C656.022 680.166 655.596 680.273 655.146 680.273C654.645 680.273 654.209 680.13 653.838 679.844C653.473 679.551 653.219 679.176 653.076 678.721C652.933 678.265 652.861 677.62 652.861 676.787V672.793C652.861 672.37 652.816 672.077 652.725 671.914C652.633 671.751 652.497 671.628 652.314 671.543C652.139 671.452 651.816 671.41 651.348 671.416V671.055H654.482V677.041C654.482 677.874 654.626 678.421 654.912 678.682C655.205 678.942 655.557 679.072 655.967 679.072C656.247 679.072 656.562 678.984 656.914 678.809C657.272 678.633 657.695 678.298 658.184 677.803V672.734C658.184 672.227 658.089 671.885 657.9 671.709C657.718 671.527 657.334 671.429 656.748 671.416V671.055H659.795ZM667.734 670.791V673.838H667.412C667.165 672.881 666.846 672.23 666.455 671.885C666.071 671.54 665.579 671.367 664.98 671.367C664.525 671.367 664.157 671.488 663.877 671.729C663.597 671.969 663.457 672.236 663.457 672.529C663.457 672.894 663.561 673.206 663.77 673.467C663.971 673.734 664.382 674.017 665 674.316L666.426 675.01C667.747 675.654 668.408 676.504 668.408 677.559C668.408 678.372 668.099 679.03 667.48 679.531C666.868 680.026 666.182 680.273 665.42 680.273C664.873 680.273 664.248 680.176 663.545 679.98C663.33 679.915 663.154 679.883 663.018 679.883C662.868 679.883 662.751 679.967 662.666 680.137H662.344V676.943H662.666C662.848 677.855 663.197 678.542 663.711 679.004C664.225 679.466 664.801 679.697 665.439 679.697C665.889 679.697 666.253 679.567 666.533 679.307C666.82 679.04 666.963 678.721 666.963 678.35C666.963 677.9 666.803 677.523 666.484 677.217C666.172 676.911 665.544 676.523 664.6 676.055C663.656 675.586 663.037 675.163 662.744 674.785C662.451 674.414 662.305 673.945 662.305 673.379C662.305 672.643 662.555 672.028 663.057 671.533C663.564 671.038 664.219 670.791 665.02 670.791C665.371 670.791 665.798 670.866 666.299 671.016C666.631 671.113 666.852 671.162 666.963 671.162C667.067 671.162 667.148 671.139 667.207 671.094C667.266 671.048 667.334 670.947 667.412 670.791H667.734Z" fill="white"/>
<rect x="0.5" y="-0.5" width="422" height="62" transform="matrix(1 0 0 -1 106 607)" fill="black" stroke="black"/>
<mask id="path-4-inside-1_105_161" fill="white">
<path d="M145 551H208V157H145V551Z"/>
</mask>
<path d="M145 551H208V157H145V551Z" fill="black"/>
<path d="M145 551V552H144V551H145ZM208 551H209V552H208V551ZM208 157V156H209V157H208ZM145 157H144V156H145V157ZM145 550H208V552H145V550ZM207 551V157H209V551H207ZM208 158H145V156H208V158ZM146 157V551H144V157H146Z" fill="black" mask="url(#path-4-inside-1_105_161)"/>
<mask id="path-6-inside-2_105_161" fill="white">
<path d="M524 533H604V177H524V533Z"/>
</mask>
<path d="M524 533H604V177H524V533Z" fill="black"/>
<path d="M524 533V534H523V533H524ZM604 533H605V534H604V533ZM604 177V176H605V177H604ZM524 177H523V176H524V177ZM524 532H604V534H524V532ZM603 533V177H605V533H603ZM604 178H524V176H604V178ZM525 177V533H523V177H525Z" fill="black" mask="url(#path-6-inside-2_105_161)"/>
<rect x="529" y="102" width="106.066" height="78.1846" transform="rotate(45 529 102)" fill="black"/>
<rect x="474" y="553" width="106.066" height="77.7817" transform="rotate(-45 474 553)" fill="black"/>
<mask id="path-10-inside-3_105_161" fill="white">
<path d="M106 102H529V165H106V102Z"/>
</mask>
<path d="M106 102H529V165H106V102Z" fill="black"/>
<path d="M106 102V101H105V102H106ZM529 102H530V101H529V102ZM529 165V166H530V165H529ZM106 165H105V166H106V165ZM106 103H529V101H106V103ZM528 102V165H530V102H528ZM529 164H106V166H529V164ZM107 165V102H105V165H107Z" fill="black" mask="url(#path-10-inside-3_105_161)"/>
<rect x="250.5" y="445.5" width="172" height="60" fill="black" stroke="black"/>
<rect x="423.5" y="444.5" width="179" height="60" transform="rotate(-90 423.5 444.5)" fill="black" stroke="black"/>
<rect x="380.707" y="247.066" width="59.9054" height="85.1728" transform="rotate(-45 380.707 247.066)" fill="black" stroke="black"/>
<rect x="440.934" y="402.707" width="59.9054" height="85.1728" transform="rotate(45 440.934 402.707)" fill="black" stroke="black"/>
<rect x="265.5" y="466.5" width="212" height="60" transform="rotate(-90 265.5 466.5)" fill="black" stroke="black"/>
<mask id="path-17-inside-4_105_161" fill="white">
<path d="M251 204H424V265H251V204Z"/>
</mask>
<path d="M251 204H424V265H251V204Z" fill="black"/>
<path d="M251 204V203H250V204H251ZM424 204H425V203H424V204ZM424 265V266H425V265H424ZM251 265H250V266H251V265ZM251 205H424V203H251V205ZM423 204V265H425V204H423ZM424 264H251V266H424V264ZM252 265V204H250V265H252Z" fill="black" mask="url(#path-17-inside-4_105_161)"/>
</svg>
